<svg width="375" height="273" viewBox="0 0 375 273" fill="none" xmlns="http://www.w3.org/2000/svg">
<path d="M0 0H375V273H0V0Z" fill="url(#paint0_linear_2736_12065)"/>
<mask id="mask0_2736_12065" style="mask-type:alpha" maskUnits="userSpaceOnUse" x="47" y="122" width="265" height="151">
<rect x="47" y="122" width="265" height="151" fill="#D9D9D9"/>
</mask>
<g mask="url(#mask0_2736_12065)">
<path d="M112.398 155.608C114.326 155.608 115.888 153.74 115.888 151.436C115.888 149.131 114.326 147.263 112.398 147.263C110.47 147.263 108.907 149.131 108.907 151.436C108.907 153.74 110.47 155.608 112.398 155.608Z" fill="#F2A7AF"/>
<path d="M193.485 199.213V207.826C193.485 209.441 192.143 210.787 190.532 210.787H172.005C170.394 210.787 169.052 209.441 169.052 207.826V205.269" fill="white"/>
<path d="M169.052 189.254V172.027C169.052 170.412 170.394 169.066 172.005 169.066H190.398C192.009 169.066 193.351 170.412 193.351 172.027V187.1C193.351 187.639 193.62 188.715 193.351 189.119C193.217 189.523 192.68 189.657 192.277 189.927C191.875 190.196 191.472 190.734 191.338 191.138C190.935 192.08 191.338 193.291 192.277 193.56C192.546 193.695 192.814 193.695 193.083 193.83C193.351 193.964 193.486 194.368 193.351 194.637C193.217 194.772 193.083 194.772 192.949 194.906C192.277 195.31 191.74 195.983 191.74 196.925C191.74 197.867 192.143 198.54 192.68 199.078C192.949 199.213 193.217 199.482 193.217 199.751C193.351 200.02 193.217 200.29 193.083 200.559C192.546 201.905 192.009 203.25 191.069 204.192C189.727 205.538 187.713 205.942 185.833 206.211C183.148 206.615 180.463 206.75 177.778 206.884C175.63 207.019 173.348 207.153 171.2 206.884C170.663 206.884 169.992 206.75 169.455 206.48C168.918 206.211 168.649 205.404 168.918 204.865C169.186 204.462 169.723 204.192 169.992 203.789C170.26 203.385 170.26 202.847 170.26 202.443C170.126 200.693 169.857 198.944 169.186 197.194C168.918 196.252 168.515 195.31 168.918 194.502C169.186 193.964 169.857 193.695 170.394 193.291C171.066 192.887 171.603 192.214 171.871 191.407C172.005 190.599 171.737 189.657 171.066 189.254C170.663 188.984 170.126 188.984 169.723 188.984C169.32 188.984 169.052 189.119 168.649 189.254" fill="white"/>
<path d="M193.485 186.966C195.499 186.562 197.647 184.005 196.304 182.39C195.633 181.448 194.559 181.582 193.485 181.986" fill="#F2A7AF"/>
<path d="M191.337 191.811C191.337 194.772 196.305 194.772 196.17 191.811C196.305 188.85 191.337 188.85 191.337 191.811Z" fill="#F8CFC7"/>
<path d="M191.74 197.06C191.74 200.02 196.708 200.02 196.573 197.06C196.708 194.099 191.74 194.099 191.74 197.06Z" fill="#F8CFC7"/>
<path d="M158.177 229.763C160.997 225.86 163.011 221.419 164.085 216.709C164.353 215.363 164.622 213.882 164.622 212.402C164.622 210.922 164.353 209.576 164.219 208.23C163.95 205.807 163.682 203.25 163.548 200.693C163.413 198.54 163.413 196.252 164.085 194.099C164.756 191.945 166.233 189.927 168.381 189.254C169.32 188.984 171.468 189.119 171.871 189.927C172.408 190.869 172.542 193.022 170.126 193.829C169.186 194.099 169.186 194.233 169.052 195.175C168.918 195.714 168.918 195.983 169.052 196.387C169.589 198.136 170.529 200.424 170.394 202.174C170.26 204.192 168.649 204.462 168.918 207.826C169.052 209.441 169.589 209.71 171.066 210.249C172.542 210.787 174.153 210.652 175.63 210.518C178.181 210.383 180.463 210.652 183.014 210.518C183.282 210.518 184.759 210.383 185.028 210.518C185.699 210.922 184.357 212.402 183.819 213.075C182.477 214.555 181.134 215.632 180.329 217.516C179.792 218.727 179.255 220.342 179.121 221.688C178.852 224.918 178.584 227.341 178.718 230.571C179.121 235.55 179.658 240.53 177.241 244.567C176.704 245.375 176.033 246.183 175.093 246.452C173.885 246.721 172.811 245.913 171.871 245.24C169.992 243.76 168.246 242.28 166.635 240.53" fill="#F8CFC7"/>
<path d="M148.108 278.617C148.511 282.116 149.451 286.019 151.196 289.115C152.539 291.403 154.284 293.018 156.969 292.614C158.311 292.479 160.057 291.672 161.131 290.73C163.682 288.576 165.83 285.75 167.575 282.924C170.931 277.675 174.153 272.292 175.898 266.236C176.57 264.082 177.241 262.063 177.644 259.91C178.181 257.084 178.852 254.527 179.523 251.701C180.329 247.663 180.597 242.953 180.194 238.781C179.926 236.627 180.194 232.186 179.255 230.302C178.718 229.09 177.107 230.302 176.167 229.36C174.824 228.014 173.079 227.072 171.2 226.668C165.024 224.918 157.64 227.745 154.687 233.532C154.015 234.743 153.613 235.954 152.673 237.031C152.002 237.838 150.928 237.973 150.256 238.646C149.451 239.453 149.317 241.741 149.182 242.818C148.914 244.433 148.511 246.183 148.377 247.798C147.437 254.258 147.303 258.699 147.571 265.159C147.706 268.927 147.706 274.984 148.108 278.617Z" fill="#F8CFC7"/>
<path d="M88.501 184.678C94.9451 190.734 102.329 200.424 112.129 199.886C116.828 196.387 119.245 185.889 123.004 182.39C140.188 186.293 160.46 197.463 163.145 215.497C165.024 221.15 161.131 226.13 158.714 231.109C156.164 235.281 156.969 241.472 150.525 238.78C149.585 248.336 146.095 276.06 140.456 294.363C137.637 303.515 134.952 310.11 130.656 311.456C127.568 312.667 132.267 302.977 128.911 303.111C125.017 303.381 121.124 303.381 117.231 303.111C112.129 302.842 106.222 308.495 101.926 305.803C100.584 304.861 96.5561 310.379 94.9451 310.379C86.7557 310.513 91.0518 307.418 82.8625 307.687C82.1912 307.687 75.8814 304.592 75.6129 304.053C74.4046 301.9 74.4046 290.595 74.5389 288.038C71.1826 276.464 76.1499 265.293 76.5526 253.585C76.6869 239.992 59.5027 235.416 48.3599 237.3C51.9846 223.303 56.1464 207.422 67.5578 197.463C73.8676 192.08 82.0569 189.792 88.501 184.678Z" fill="white"/>
<path d="M49.2994 273.503C45.8089 262.198 47.0171 249.009 48.2254 237.3C48.2254 236.762 54.938 236.896 58.5628 237.435C61.6505 237.838 63.3958 238.78 66.4836 239.588C68.4974 240.126 70.9139 242.01 72.5249 243.491C74.5387 245.375 75.3442 246.183 74.2702 248.74C73.3304 251.297 71.4509 253.45 69.9741 255.873C68.3631 258.43 67.1548 261.121 65.1411 263.409C63.1273 265.563 60.4423 267.178 58.697 269.466C57.7572 270.677 57.086 272.023 56.4147 273.368C56.012 274.176 55.7435 274.849 55.3407 275.656" fill="#F8CFC7"/>
<path d="M128.508 197.463C127.836 197.194 126.897 197.867 126.36 198.136C121.124 200.155 116.291 202.039 111.189 204.327C110.115 204.865 108.504 205.673 107.565 206.211C104.477 207.961 102.06 209.576 99.778 212.267C94.0051 218.727 89.4406 225.86 83.5336 232.455C81.2513 235.012 78.5663 237.435 76.0155 239.722C74.136 241.337 72.1221 243.087 70.1083 244.567C66.4835 247.259 62.3218 249.547 59.2341 253.046C56.2805 256.276 54.401 260.448 53.7298 264.755C53.4612 266.505 49.2995 269.735 48.8967 271.484C48.8967 271.619 48.8967 271.619 48.7625 271.753C48.7625 271.888 48.8967 272.023 48.8967 272.157C49.8365 276.06 51.4475 280.501 52.6557 284.404C53.327 286.827 54.2668 288.845 55.7435 290.864C56.2805 291.537 58.1599 293.152 58.9655 293.421C60.1737 293.825 61.7848 294.229 63.1273 294.363C64.6041 294.498 66.2151 293.825 67.2891 293.152C70.9139 291.268 73.4647 289.115 76.0155 286.154C77.358 284.539 79.2375 281.982 80.4458 280.232C82.4594 277.137 83.6678 274.31 85.5473 271.215C86.6213 269.465 87.8296 266.505 88.7694 264.62C91.1859 259.641 93.0654 254.257 95.2134 249.278C96.2874 246.855 97.3614 244.433 98.3012 242.01C100.046 232.59 103 231.244 103 231.244C106.088 229.763 111.592 226.13 111.592 226.13C120.453 221.957 118.976 213.882 118.976 213.882C118.573 212.537 118.439 211.594 118.439 210.787C118.17 210.383 118.17 210.114 118.17 209.845C118.036 208.903 118.17 208.364 118.707 207.826C118.842 207.692 119.11 207.422 119.244 207.288C120.184 206.48 121.929 205.269 123.003 204.731C124.614 203.923 126.091 203.116 127.568 202.174C128.105 201.77 128.642 201.366 129.045 200.828C129.448 200.289 130.119 199.617 130.119 198.944C130.119 198.271 129.179 197.732 128.508 197.463Z" fill="#F8CFC7"/>
<path d="M89.9774 144.168C90.2459 146.052 90.5144 147.937 90.7829 149.821C89.8432 149.148 88.2321 149.552 87.5609 150.628C86.8896 151.705 86.8896 153.051 87.1581 154.262C87.4266 155.204 87.8294 156.146 88.6349 156.819C89.4404 157.357 90.9172 157.492 91.5884 156.819C92.9309 163.952 93.6022 170.277 92.6624 177.007C92.3939 179.025 91.5884 181.986 89.9774 183.197C89.5747 183.601 86.0841 185.889 86.2184 186.158C89.7089 192.08 97.3612 194.772 103.403 198.271C105.282 199.348 109.175 201.501 111.323 201.097C113.069 200.693 113.606 199.213 114.948 198.136C119.378 194.233 121.929 188.715 124.48 183.332C124.749 182.794 121.929 182.121 121.526 181.986C118.036 180.64 114.545 179.295 113.471 175.661C113.203 174.584 112.8 171.623 112.8 170.412C112.8 165.702 113.069 161.53 112.934 156.819C112.934 156.415 112.263 143.764 111.86 141.88C111.458 140.131 109.847 139.054 108.37 138.112C106.088 136.766 103.537 135.689 101.12 134.747C99.1065 134.074 97.0927 133.671 95.079 133.805C93.0652 133.94 90.9172 134.747 89.5747 136.362" fill="#F8CFC7"/>
<path d="M113.203 174.18C112.935 172.834 112.8 171.085 112.8 170.277C112.8 168.259 112.8 166.374 112.8 164.49C110.921 170.95 102.866 171.623 95.6162 165.702C95.7505 165.702 103.537 174.584 113.203 174.18Z" fill="#F2A7AF"/>
<path d="M181.135 195.041C185.213 195.041 188.518 191.727 188.518 187.639C188.518 183.551 185.213 180.237 181.135 180.237C177.057 180.237 173.751 183.551 173.751 187.639C173.751 191.727 177.057 195.041 181.135 195.041Z" fill="#81E291"/>
<path d="M178.047 187.235L181 190.196L189.458 179.833" stroke="white" stroke-width="2" stroke-miterlimit="10"/>
<path d="M148.377 254.392C147.974 256.007 147.705 257.757 147.437 259.372C147.437 260.314 147.437 261.256 147.437 262.198C147.437 262.063 147.437 261.929 147.437 261.794C147.84 259.237 148.108 256.815 148.377 254.392Z" fill="white"/>
<path d="M70.1082 244.702C70.7794 244.298 71.5849 243.76 72.2562 243.356C71.7192 242.683 72.1219 243.222 71.5849 242.683C71.3164 242.414 69.7054 241.203 69.5711 241.068C69.3026 241.203 69.3026 241.338 69.1684 241.472C67.8259 242.549 66.3491 243.491 64.8723 244.433C61.7846 246.586 58.831 249.413 56.9515 252.643C55.609 254.931 53.5952 259.237 54.535 262.063C55.4748 258.699 57.0858 255.603 59.5023 253.181C62.3216 249.682 66.4834 247.394 70.1082 244.702Z" fill="#F2A7AF"/>
<path d="M150.256 238.784C150.256 238.646 150.394 238.646 150.394 238.646H150.256V238.784Z" fill="#E5E5E5"/>
<path d="M148.108 278.617C148.511 282.116 149.451 286.019 151.196 289.115C152.539 291.403 154.284 293.018 156.969 292.614C158.311 292.479 160.057 291.672 161.131 290.73C163.681 288.576 165.829 285.75 167.575 282.924C170.931 277.675 174.153 272.292 175.898 266.235C176.57 264.082 177.241 262.063 177.644 259.91C178.181 257.084 178.852 254.527 179.523 251.7C179.523 251.431 179.657 251.162 179.657 250.893C176.033 257.488 173.75 265.024 169.454 271.215C168.38 272.696 167.172 274.311 165.561 275.253C163.95 276.195 161.936 276.733 160.191 276.195C157.103 275.118 155.761 271.619 155.224 268.389C153.613 259.103 155.224 249.682 155.761 240.395C155.895 239.184 155.895 237.973 155.895 236.762C155.761 237.165 155.492 237.704 155.358 238.242C155.224 238.511 154.418 238.915 154.15 239.05C153.881 239.184 153.21 239.184 152.807 239.05C151.733 238.915 151.33 238.78 150.391 238.511L150.256 238.646C149.988 243.76 149.585 248.74 148.511 253.854C148.511 253.988 148.511 253.988 148.511 254.123C148.243 256.545 147.974 258.968 147.571 261.39C147.571 261.525 147.571 261.66 147.571 261.794C147.571 262.871 147.571 263.948 147.706 265.024C147.706 268.927 147.706 274.983 148.108 278.617Z" fill="#F2A7AF"/>
<path d="M150.122 213.479L150.256 213.613C151.33 214.016 150.122 213.479 150.122 213.479Z" fill="#E5E5E5"/>
<path d="M149.182 248.605C148.914 250.489 148.779 252.508 148.511 254.392C148.511 254.258 148.511 254.258 148.511 254.123C149.585 249.009 150.122 244.029 150.256 238.915L150.122 239.05C149.854 242.145 149.451 245.375 149.182 248.605Z" fill="#E5E5E5"/>
<path d="M193.351 199.078V207.692C193.351 209.307 192.008 210.653 190.397 210.653H172.005C170.394 210.653 169.052 209.307 169.052 207.692V205.135" stroke="#0A2144" stroke-width="0.5" stroke-miterlimit="10" stroke-linecap="round" stroke-linejoin="round"/>
<path d="M193.351 193.83V194.772" stroke="#0A2144" stroke-width="0.5" stroke-miterlimit="10" stroke-linecap="round" stroke-linejoin="round"/>
<path d="M169.052 189.119V171.892C169.052 170.277 170.394 168.932 172.005 168.932H190.397C192.008 168.932 193.351 170.277 193.351 171.892V186.966V189.254" stroke="#0A2144" stroke-width="0.5" stroke-miterlimit="10" stroke-linecap="round" stroke-linejoin="round"/>
<path d="M91.5884 150.494C82.0566 147.667 80.9826 131.786 91.0514 128.287C95.616 125.596 100.852 125.596 105.819 126.941C108.638 127.614 109.041 124.654 106.759 123.577C113.203 121.962 122.198 124.654 124.212 131.652C127.031 144.706 114.948 150.897 104.745 143.361C94.9447 133.94 89.4404 137.439 91.5884 150.494Z" fill="#0A2144"/>
<path d="M99.5094 144.976C98.3011 144.976 97.2271 144.841 96.2873 145.11C95.8846 145.245 95.4818 145.379 95.0791 145.649C94.6763 145.918 94.2736 146.322 93.7366 146.725C93.7366 146.052 93.8708 145.379 94.2736 144.841C94.6763 144.303 95.2133 143.899 95.8846 143.63C96.5559 143.495 97.2271 143.495 97.8984 143.764C98.5696 144.034 99.1066 144.437 99.5094 144.976Z" fill="black"/>
<path d="M105.819 144.976C106.088 144.572 106.625 144.303 107.027 144.303C107.43 144.168 107.967 144.303 108.37 144.437C109.175 144.707 109.981 145.245 110.249 146.187C109.712 146.187 109.31 146.187 109.041 146.052C108.638 146.052 108.37 145.918 107.967 145.783L107.027 145.379C106.625 145.245 106.356 145.11 105.819 144.976Z" fill="black"/>
<path d="M109.578 156.684C109.578 156.684 103 158.838 97.2268 156.684C97.4953 159.511 107.43 170.412 109.578 156.684Z" fill="#0A2144"/>
<path d="M98.3011 148.744C98.3011 150.359 96.0188 150.359 96.0188 148.744C96.0188 146.994 98.3011 146.994 98.3011 148.744Z" fill="#0A2144"/>
<path d="M109.041 148.071C109.175 149.686 106.893 149.821 106.759 148.206C106.49 146.591 108.907 146.456 109.041 148.071Z" fill="#0A2144"/>
<path d="M94.9451 148.744C94.9451 148.744 96.4218 146.86 99.2411 147.802" stroke="#0A2144" stroke-width="0.5" stroke-miterlimit="10" stroke-linecap="round" stroke-linejoin="round"/>
<path d="M105.819 147.667C105.819 147.667 107.699 146.456 110.115 147.802" stroke="#0A2144" stroke-width="0.5" stroke-miterlimit="10" stroke-linecap="round" stroke-linejoin="round"/>
<path d="M106.222 153.185C105.282 154.935 103.805 154.262 102.329 153.858" stroke="#0A2144" stroke-width="0.5" stroke-miterlimit="10" stroke-linecap="round" stroke-linejoin="round"/>
<path d="M87.6951 130.575C87.6951 130.575 79.2373 137.708 85.2786 145.783C85.2786 145.783 83.1305 142.149 85.4128 139.189" fill="#0A2144"/>
<path d="M123.138 129.364C123.138 129.364 118.707 121.02 109.31 122.096C109.31 122.096 114.814 121.154 118.573 127.749" fill="#0A2144"/>
<path d="M91.8569 222.227C102.06 207.692 108.773 204.058 128.642 197.329C128.642 197.329 131.73 198.405 128.373 201.501L119.244 207.019C118.036 207.692 117.633 209.172 118.17 210.383C118.17 210.383 121.795 219.939 112.934 225.187" stroke="#0A2144" stroke-width="0.5" stroke-miterlimit="10" stroke-linecap="round" stroke-linejoin="round"/>
<path d="M91.8568 222.092C85.547 231.109 77.8946 239.184 69.0341 245.779C62.7242 250.355 54.9377 255.469 54.5349 263.948" stroke="#0A2144" stroke-width="0.5" stroke-miterlimit="10" stroke-linecap="round" stroke-linejoin="round"/>
<path d="M48.0908 237.165C55.3404 236.089 63.5297 237.3 69.571 241.068" stroke="#0A2144" stroke-width="0.5" stroke-miterlimit="10" stroke-linecap="round" stroke-linejoin="round"/>
<path d="M55.4746 231.109C63.1269 230.975 71.3163 233.935 75.8808 239.857" stroke="#0A2144" stroke-width="0.5" stroke-miterlimit="10" stroke-linecap="round" stroke-linejoin="round"/>
<path d="M164.755 215.901C163.413 223.169 158.714 229.763 156.298 236.762C153.478 244.568 151.733 252.912 151.062 261.121" stroke="#0A2144" stroke-width="0.5" stroke-miterlimit="10" stroke-linecap="round" stroke-linejoin="round"/>
<path d="M166.903 206.48C174.287 203.385 167.843 196.521 169.454 194.368" stroke="#0A2144" stroke-width="0.5" stroke-miterlimit="10" stroke-linecap="round" stroke-linejoin="round"/>
<path d="M150.39 221.688C151.196 246.856 146.9 268.927 141.127 292.614" stroke="#0A2144" stroke-width="0.5" stroke-miterlimit="10" stroke-linecap="round" stroke-linejoin="round"/>
<path d="M80.4456 228.956C80.5798 228.148 80.7141 227.475 80.8483 226.668" stroke="#0A2144" stroke-width="0.5" stroke-miterlimit="10" stroke-linecap="round" stroke-linejoin="round"/>
<path d="M77.4919 238.646C78.566 236.358 79.3715 233.935 79.9085 231.378" stroke="#0A2144" stroke-width="0.5" stroke-miterlimit="10" stroke-linecap="round" stroke-linejoin="round"/>
<path d="M100.315 237.569L98.5695 242.683L83.2649 231.513L86.3527 227.206L100.315 237.569Z" fill="#EF5411"/>
<path d="M90.9172 239.723C89.5746 238.646 85.8156 236.896 87.5609 234.608C88.9034 233.397 90.9172 228.014 93.4679 230.032C94.8104 231.109 98.5695 232.859 96.8242 235.147C95.4817 236.358 93.3337 241.607 90.9172 239.723Z" fill="#0A2144" stroke="#0A2144" stroke-width="0.5" stroke-miterlimit="10" stroke-linecap="round" stroke-linejoin="round"/>
<path d="M167.709 189.119V171.892C167.709 170.277 169.051 168.932 170.662 168.932H189.055" stroke="#0A2144" stroke-width="0.5" stroke-miterlimit="10" stroke-linecap="round" stroke-linejoin="round"/>
<path d="M188.786 210.787H170.394C168.783 210.787 167.44 209.441 167.44 207.826V206.346" stroke="#0A2144" stroke-width="0.5" stroke-miterlimit="10" stroke-linecap="round" stroke-linejoin="round"/>
<path d="M122.6 186.697C120.318 191.003 116.156 197.867 111.054 201.097C111.054 201.097 93.3333 196.521 86.0837 186.158" stroke="#0A2144" stroke-width="0.5" stroke-miterlimit="10" stroke-linecap="round" stroke-linejoin="round"/>
<path d="M112.934 164.356C112.8 165.163 112.397 165.971 111.86 166.778C111.323 167.451 110.786 168.259 109.981 168.797C108.504 169.874 106.49 170.277 104.745 170.008C104.476 170.008 104.342 170.008 104.074 169.874L103.402 169.739C103 169.604 102.463 169.47 102.06 169.335C101.254 168.932 100.315 168.797 99.6434 168.259C98.8379 167.855 98.0324 167.451 97.3612 166.913C96.6899 166.374 95.8844 165.836 95.2131 165.298C96.8242 166.105 98.3009 167.047 99.9119 167.72C100.717 168.124 101.523 168.393 102.328 168.662C102.731 168.797 103.134 168.797 103.537 168.932L104.208 169.066H104.879C106.624 169.335 108.37 169.066 109.712 168.124C111.189 167.451 112.263 165.971 112.934 164.356Z" fill="#0A2144"/>
<path d="M281.118 140.776C284.537 143.383 287.295 146.752 289.721 150.337C297.222 161.528 301.855 174.675 304.171 187.93C305.164 193.58 305.825 199.447 305.053 205.206C290.604 204.988 276.044 204.119 261.595 202.598C260.602 202.489 259.609 202.381 258.837 201.837C257.514 200.968 257.293 199.23 257.072 197.709C256.631 193.797 256.08 189.886 255.639 186.083C254.646 178.478 253.763 170.763 255.087 163.158C256.411 155.552 260.382 148.164 267.22 144.361" fill="#0A2144"/>
<path d="M294.271 243.071C319.953 203.455 302.464 195.769 289.639 184.457L289.624 184.901C287.569 186.724 285.414 188.209 283.045 189.465C279.886 191.14 276.202 191.909 272.648 192.126C270.536 192.279 268.317 192.317 266.227 191.804C264.138 191.291 262.062 190.334 260.673 188.733C259.495 187.472 258.766 186.003 258.378 184.323C258.935 184.23 258.939 184.119 258.378 184.323C224.28 192.987 221.46 259.137 243.62 252.75C232.873 279.74 235.545 333.844 235.545 333.844C263.061 346.859 311.712 333.892 311.712 333.892C316.683 249.362 297.208 268.62 294.271 243.071Z" fill="#CE5B52"/>
<path d="M299.564 192.896L295.229 196.644C288.281 202.307 281.229 228.195 277.83 223.638C277.405 223.069 275.752 219.347 275.095 219.103C272.144 217.784 269.433 215.917 267.062 213.838C264.135 225.413 264.509 237.762 267.905 249.21C269.307 253.813 275.736 260.692 281.048 260.977C284.146 261.19 286.659 255.493 289.624 256.368C293.468 257.494 296.27 263.365 298.588 267.109C304.161 276.405 306.679 287.602 309.443 298.029C311.027 303.86 311.832 309.778 312.412 315.798C313.824 252.047 297.052 266.614 294.271 243.071C313.414 213.578 308.589 201.749 299.564 192.896Z" fill="#93271F"/>
<path d="M249.561 226.936C249.282 218.48 247.114 210.184 245.052 202.003L238.837 198.799C224.376 220.666 226.845 257.202 243.631 252.417C241.092 258.891 239.281 266.834 238.009 275.24C244.087 265.658 246.907 253.969 248.498 242.573C249.103 237.591 249.72 232.276 249.561 226.936Z" fill="#93271F"/>
<path d="M253.346 178.823L259.957 193.711C260.474 194.839 259.659 196.035 258.438 196.106L249.548 196.704C248.88 196.794 248.23 196.328 247.916 195.762L240.941 181.863C240.419 180.845 241.016 179.531 242.242 179.349L251.496 177.762C252.275 177.677 253.036 178.146 253.346 178.823Z" fill="#EFD800"/>
<path d="M259.957 193.711L253.346 178.823C253.035 178.146 252.275 177.677 251.496 177.762L242.242 179.349C241.463 179.434 240.884 180.193 240.862 180.86C241.091 180.645 241.43 180.434 241.763 180.445L251.017 178.858C251.795 178.772 252.56 179.131 252.867 179.919L259.367 194.803C259.467 195.14 259.57 195.365 259.559 195.698C260.02 195.158 260.267 194.388 259.957 193.711Z" fill="#0A2144"/>
<path d="M244.725 184.006C245.175 183.688 245.169 182.902 244.71 182.25C244.252 181.598 243.516 181.327 243.066 181.645C242.615 181.963 242.622 182.749 243.08 183.401C243.538 184.053 244.274 184.324 244.725 184.006Z" fill="#0A2144"/>
<path d="M280.169 226.716C280.169 226.716 270.286 210.165 268.762 205.892C268.762 205.892 265.678 191.675 256.489 191.263C256.992 192.836 256.473 195.153 252.37 198.575C253.97 200.517 255.659 203.129 258.352 205.551C258.352 205.551 258.537 206.668 259.573 215.705C259.573 215.705 259.366 242.484 277.135 255.181C279.521 256.815 282.743 256.587 284.695 254.539C287.447 251.739 291.593 246.985 295.794 240.565C314.277 210.938 307.429 199.933 297.514 191.162C295.091 194.083 290.883 200.725 286.415 215.361C286.415 215.361 284.476 220.41 282.138 224.113C281.552 225.094 280.859 225.96 280.169 226.716Z" fill="#F8CFC7"/>
<path d="M247.869 224.436C246.391 211.939 248.064 201.435 248.064 201.435C249.647 200.486 250.894 199.638 251.92 198.783C249.784 196.267 248.624 194.451 248.624 194.451C245.782 189.801 256.049 191.138 256.492 191.152C256.2 189.92 255.221 189.332 255.221 189.332C253.139 188.597 250.931 188.303 248.937 188.237C223.882 205.2 223.6 258.096 243.52 252.413C250.28 242.298 247.869 224.436 247.869 224.436Z" fill="#F5C7B7"/>
<path d="M256.489 191.263C256.046 191.249 245.778 189.912 248.62 194.562C248.62 194.562 249.781 196.378 251.916 198.894C256.466 195.375 256.881 192.832 256.489 191.263Z" fill="#F5C7B7"/>
<path d="M272.651 192.015C276.206 191.798 279.89 191.029 283.049 189.354C285.418 188.098 287.573 186.612 289.628 184.79C289.628 184.79 289.853 184.687 289.857 184.575C289.857 184.575 289.639 184.457 289.643 184.346C278.719 179.32 280.123 170.253 279.255 162.889L267.083 168.936C267.352 184.506 260.061 183.711 260.061 183.711C259.503 183.804 258.832 184.004 258.274 184.097C258.774 185.781 259.502 187.249 260.57 188.507C262.07 190.112 264.034 191.066 266.124 191.579C268.325 192.095 270.429 192.164 272.651 192.015Z" fill="#F8CFC7"/>
<path d="M266.527 175.809C266.977 175.602 267.538 175.398 267.989 175.19C270.565 174.385 273.562 174.261 276.07 175.566C278.574 176.982 280.366 179.819 283.113 180.576C283.553 180.701 283.996 180.716 284.324 180.838C279.06 175.664 279.838 168.798 279.144 162.885L266.973 168.933C267.104 171.716 266.921 173.933 266.527 175.809Z" fill="#F2A7AF"/>
<path d="M281.957 168.423C282.289 168.434 282.718 168.893 282.593 169.333C282.578 169.777 282.235 170.099 281.788 170.196C281.563 170.3 281.345 170.181 281.127 170.063C280.91 169.945 280.806 169.719 280.703 169.493C280.492 169.153 280.506 168.709 280.406 168.372L280.842 168.609C280.167 168.92 280.238 170.145 280.659 170.826C280.766 170.94 280.873 171.055 280.984 171.059C281.095 171.062 281.209 170.955 281.324 170.848C281.438 170.74 281.445 170.518 281.338 170.403C281.231 170.289 281.01 170.282 280.788 170.274C281.01 170.282 281.235 170.178 281.453 170.296C281.67 170.414 281.66 170.747 281.542 170.966C281.424 171.184 281.195 171.399 280.973 171.392C280.641 171.381 280.423 171.263 280.32 171.037C279.891 170.578 279.798 170.02 279.813 169.576C279.831 169.02 279.963 168.358 280.635 168.158L280.975 167.946L280.96 168.39C280.949 168.724 281.049 169.06 281.149 169.397C281.249 169.734 281.467 169.852 281.688 169.859C281.91 169.866 282.253 169.544 282.371 169.326C282.493 168.996 282.286 168.545 281.957 168.423Z" fill="#0A2144"/>
<path d="M287.765 153.497C288.24 162.738 284.23 166.719 279.82 169.353C279.03 169.772 279.68 163.458 278.783 163.762C276.985 164.481 273.861 168.491 271.757 168.423C263.229 168.143 256.587 161.035 256.865 152.486C257.144 143.937 264.345 137.281 272.873 137.561C281.401 137.84 287.379 144.927 287.765 153.497Z" fill="#0A2144"/>
<path d="M284.251 159.273C284.178 161.494 282.073 164.87 280.079 164.805C278.086 164.74 277.472 163.164 277.544 160.943C277.616 158.722 279.025 156.323 281.019 156.389C283.012 156.454 284.319 157.164 284.251 159.273Z" fill="#F8CFC7"/>
<path d="M283.547 160.473C283.193 161.128 282.614 161.887 281.938 162.198C281.259 162.621 280.262 162.588 279.723 162.126C278.966 161.545 278.891 160.431 278.134 159.851C278.023 159.847 277.913 159.844 277.806 159.729C277.68 160.169 277.555 160.61 277.541 161.054C277.468 163.275 278.082 164.851 280.076 164.916C282.069 164.981 284.179 161.494 284.247 159.384C284.255 159.162 284.265 158.829 284.162 158.603C284.14 159.269 283.897 159.928 283.547 160.473Z" fill="#F2A7AF"/>
<path d="M263.706 163.713C268.416 163.867 272.388 159.27 272.577 153.445C272.767 147.62 269.103 142.772 264.393 142.618C259.683 142.464 255.711 147.061 255.522 152.886C255.332 158.712 258.996 163.559 263.706 163.713Z" fill="#0A2144"/>
<path d="M279.156 159.106C279.087 161.216 279.994 164.024 278.939 165.768C276.129 170.344 270.819 173.393 267.275 173.277C262.291 173.114 259.06 166.784 259.302 159.345C259.545 151.907 259.92 143.805 264.903 143.969C268.891 144.099 277.023 149.7 279.818 155.794C280.443 157.037 279.203 157.663 279.156 159.106Z" fill="#F8CFC7"/>
<path d="M271.059 162.62C271.059 162.62 266.631 165.81 261.901 164.654C261.901 164.654 263.167 170.031 267.741 169.18C267.852 169.184 271.517 168.97 271.059 162.62Z" fill="#0A2144"/>
<path d="M262.555 165.009C263.408 166.037 264.605 166.743 266.045 166.791C268.26 166.863 270.197 165.259 270.712 163.053C269.579 163.794 266.195 165.573 262.555 165.009Z" fill="white"/>
<path d="M268.58 153.647C269.498 152.677 271.059 152.395 272.374 152.882C273.031 153.126 273.571 153.588 273.996 154.158C274.21 154.387 274.31 154.724 274.524 154.953C274.624 155.29 274.724 155.627 274.827 155.852C274.502 155.62 274.288 155.39 274.07 155.272C273.856 155.043 273.638 154.924 273.424 154.695C272.992 154.348 272.445 154.107 272.009 153.871C271.023 153.505 269.916 153.469 268.58 153.647Z" fill="#0A2144"/>
<path d="M263.939 153.162C263.046 153.355 262.267 153.441 261.488 153.526C260.709 153.612 260.259 153.819 259.462 154.46C259.365 154.013 259.494 153.461 259.952 153.031C260.298 152.598 260.856 152.505 261.302 152.409C261.749 152.312 262.303 152.33 262.742 152.456C263.178 152.692 263.617 152.818 263.939 153.162Z" fill="#0A2144"/>
<path d="M274.212 157.722C274.212 157.722 271.316 154.737 268.996 157.885" stroke="#0A2144" stroke-width="0.2" stroke-miterlimit="10" stroke-linecap="round" stroke-linejoin="round"/>
<path d="M263.823 156.715C263.823 156.715 261.58 154.085 259.94 156.81" stroke="#0A2144" stroke-width="0.2" stroke-miterlimit="10" stroke-linecap="round" stroke-linejoin="round"/>
<path d="M271.903 158.657C272.314 158.289 272.316 157.62 271.908 157.162C271.5 156.705 270.837 156.633 270.426 157.001C270.015 157.369 270.013 158.038 270.421 158.495C270.829 158.952 271.493 159.025 271.903 158.657Z" fill="#0A2144"/>
<path d="M271.814 157.551C271.831 157.429 271.746 157.317 271.625 157.3C271.504 157.283 271.392 157.368 271.375 157.489C271.358 157.611 271.442 157.724 271.564 157.74C271.685 157.757 271.797 157.672 271.814 157.551Z" fill="white"/>
<path d="M262.514 158.032C262.924 157.664 262.927 156.995 262.519 156.538C262.111 156.08 261.447 156.008 261.037 156.376C260.626 156.744 260.624 157.413 261.032 157.871C261.44 158.328 262.103 158.4 262.514 158.032Z" fill="#0A2144"/>
<path d="M262.445 156.929C262.462 156.807 262.377 156.695 262.255 156.678C262.134 156.661 262.022 156.746 262.005 156.868C261.988 156.99 262.073 157.102 262.194 157.119C262.316 157.136 262.428 157.051 262.445 156.929Z" fill="white"/>
<path d="M260.678 157.946C260.789 157.949 261.543 158.639 262.776 158.236" stroke="#0A2144" stroke-width="0.2" stroke-miterlimit="10" stroke-linecap="round" stroke-linejoin="round"/>
<path d="M270.185 158.813C270.185 158.813 271.5 159.3 272.633 158.559" stroke="#0A2144" stroke-width="0.2" stroke-miterlimit="10" stroke-linecap="round" stroke-linejoin="round"/>
<path d="M262.282 142.771C262.282 142.771 262.557 151.338 279.16 158.995C279.16 158.995 279.8 156.349 281.465 156.292C283.02 156.232 277.778 146.946 277.778 146.946L274.414 144.724" fill="#0A2144"/>
<path d="M251.064 194.42C250.735 194.298 250.492 194.957 250.463 195.845C250.917 195.526 251.256 195.315 251.703 195.219C251.385 194.764 251.175 194.423 251.064 194.42Z" fill="#F5C7B7"/>
<path d="M252.974 197.039C253.225 196.158 253.472 195.388 252.371 195.13C252.15 195.122 251.928 195.115 251.592 195.215C251.91 195.67 252.221 196.347 252.328 196.462C252.542 196.691 252.756 196.921 252.974 197.039Z" fill="#F5C7B7"/>
<path d="M290.673 244.62C287.27 246.954 282.897 248.478 278.835 247.234C274.884 245.993 272.231 242.35 270.128 238.835C264.023 228.855 259.744 217.266 261.671 205.77C261.946 204.112 262.237 202.01 260.94 200.967C260.29 200.501 259.408 200.361 258.636 200.225C256.982 199.949 255.457 199.121 254.157 198.189C253.942 197.96 253.617 197.727 253.403 197.497C253.185 197.379 253.082 197.153 252.867 196.924C252.653 196.695 252.435 196.576 252.332 196.351C252.225 196.236 251.914 195.559 251.596 195.104C251.15 195.201 250.81 195.412 250.356 195.73C250.131 195.834 250.013 196.053 249.788 196.156C248.19 197.549 246.678 199.722 246.092 200.703C244.329 203.758 243.553 207.178 243.105 210.72C242.234 217.027 242.139 223.359 242.265 229.698C242.296 232.144 242.323 234.702 241.583 237.011C240.842 239.321 238.998 241.484 236.547 241.848C234.207 242.216 232.139 241.037 229.963 239.743C231.553 248.798 236.131 254.616 243.513 252.635C250.28 242.298 247.869 224.436 247.869 224.436C246.391 211.939 248.064 201.435 248.064 201.435C248.968 200.909 249.872 200.383 250.555 199.849C251.008 199.531 252.023 199.008 252.477 198.69C253.227 199.492 253.412 200.61 254.38 201.531C255.559 202.792 256.955 204.171 258.466 205.443C258.466 205.443 258.651 206.561 259.687 215.597C259.687 215.597 259.48 242.377 277.249 255.073C279.635 256.707 282.858 256.479 284.809 254.432C287.561 251.632 291.708 246.877 295.908 240.457C296.026 240.239 296.144 240.02 296.377 239.695C294.543 241.524 292.713 243.242 290.673 244.62Z" fill="#F2A7AF"/>
<path d="M262.743 142.231C262.743 142.231 250.163 143.819 255.126 158.208C255.126 158.208 252.985 152.47 257.649 148.844" fill="#0A2144"/>
<path d="M262.592 143.448C262.592 143.448 260.654 148.497 271.812 156.532C271.812 156.532 264.993 151.418 266.182 145.566" fill="#0A2144"/>
<path d="M289.746 184.572C289.746 184.572 282.35 193.777 267.224 191.837C267.224 191.837 260.486 191.061 258.556 185.662" stroke="#0A2144" stroke-width="0.5" stroke-miterlimit="10" stroke-linecap="round" stroke-linejoin="round"/>
<path d="M281.784 224.768L283.753 232.39L280.397 226.501C280.287 226.497 281.205 225.527 281.784 224.768Z" fill="#0A2144"/>
<path d="M251.064 194.42C250.735 194.298 250.492 194.957 250.463 195.845C250.917 195.527 251.257 195.315 251.703 195.219C251.386 194.764 251.175 194.424 251.064 194.42Z" fill="#F5C7B7"/>
<path d="M252.974 197.039C253.225 196.158 253.472 195.388 252.371 195.13C252.15 195.122 251.928 195.115 251.593 195.215C251.91 195.67 252.221 196.347 252.328 196.462C252.542 196.691 252.757 196.921 252.974 197.039Z" fill="#F5C7B7"/>
<path d="M259.392 194.026C259.392 194.026 255.149 191.553 252.565 192.58" stroke="#0A2144" stroke-width="0.5" stroke-miterlimit="10" stroke-linecap="round" stroke-linejoin="round"/>
<path d="M257.777 195.973C257.777 195.973 253.758 193.397 251.839 194.445C250.935 194.971 250.452 196.178 250.527 197.292C250.52 197.514 250.627 197.629 250.734 197.743C251.059 197.976 251.409 197.432 251.852 197.447C252.074 197.454 252.288 197.683 252.392 197.909C252.495 198.134 252.484 198.468 252.477 198.69C252.555 199.692 256.948 204.393 257.816 204.977" stroke="#0A2144" stroke-width="0.5" stroke-miterlimit="10" stroke-linecap="round" stroke-linejoin="round"/>
<path d="M252.48 191.799C252.48 191.799 258.315 189.656 262.504 193.794C262.504 193.794 267.336 198.62 268.873 205.895L272.932 214.031L284.482 233.859" stroke="#0A2144" stroke-width="0.5" stroke-miterlimit="10" stroke-linecap="round" stroke-linejoin="round"/>
<path d="M281.083 164.616C281.083 164.616 279.396 165.338 279.469 163.118L279.175 165.331L279.415 164.783C279.304 164.78 280.068 165.138 281.083 164.616Z" fill="#0A2144"/>
<path d="M248.934 188.348C223.878 205.311 223.596 258.207 243.517 252.524" stroke="#0A2144" stroke-width="0.5" stroke-miterlimit="10" stroke-linecap="round" stroke-linejoin="round"/>
<path d="M265.298 159.097C264.936 159.974 264.686 160.855 264.546 161.74L264.543 161.851C264.543 161.851 264.65 161.966 264.761 161.969C265.204 161.984 265.536 161.995 265.979 162.009" stroke="#0A2144" stroke-width="0.5" stroke-miterlimit="10" stroke-linecap="round" stroke-linejoin="round"/>
<path d="M255.769 203.132C255.769 203.132 258.462 205.554 260.252 205.057L258.633 207.116L258.355 205.44C258.351 205.551 256.198 203.591 255.769 203.132Z" fill="#271314"/>
<path d="M249.758 200.49C249.758 200.49 248.185 201.106 247.31 200.743C247.31 200.743 248.049 201.879 247.906 202.875C247.91 202.764 248.171 201.55 248.171 201.55C248.171 201.55 249.414 200.812 249.758 200.49Z" fill="#271314"/>
<path d="M283.14 159.348C283.14 159.348 281.761 157.413 280.674 160.156" stroke="#0A2144" stroke-width="0.5" stroke-miterlimit="10" stroke-linecap="round" stroke-linejoin="round"/>
<path d="M279.304 164.78C279.046 165.883 278.567 166.978 277.874 167.845C277.177 168.822 276.376 169.574 275.575 170.326C274.668 170.963 273.649 171.597 272.638 172.008C272.077 172.212 271.516 172.416 271.069 172.512C270.512 172.605 269.955 172.698 269.397 172.791C270.405 172.491 271.527 172.083 272.542 171.56C273.557 171.038 274.464 170.401 275.372 169.763C276.28 169.126 276.973 168.26 277.667 167.393C278.242 166.745 278.828 165.764 279.304 164.78Z" fill="#0A2144"/>
<path d="M242.482 168.576L241.753 177.332" stroke="#0A2144" stroke-miterlimit="10" stroke-linecap="round" stroke-linejoin="round"/>
<path d="M238.284 178.329L235.19 178.006" stroke="#0A2144" stroke-miterlimit="10" stroke-linecap="round" stroke-linejoin="round"/>
</g>
<mask id="mask1_2736_12065" style="mask-type:alpha" maskUnits="userSpaceOnUse" x="0" y="0" width="375" height="273">
<path d="M0 0H375V273H0V0Z" fill="url(#paint1_linear_2736_12065)"/>
</mask>
<g mask="url(#mask1_2736_12065)">
<path d="M-23.5 208.455C-4.99846 208.455 10 193.419 10 174.872C10 156.325 -4.99846 141.289 -23.5 141.289C-42.0015 141.289 -57 156.325 -57 174.872C-57 193.419 -42.0015 208.455 -23.5 208.455Z" fill="#D0EDFF"/>
<path d="M385 104.198C407.091 104.198 425 86.2451 425 64.099C425 41.9529 407.091 24 385 24C362.909 24 345 41.9529 345 64.099C345 86.2451 362.909 104.198 385 104.198Z" fill="#D0EDFF"/>
<path d="M214 119.235C216.761 119.235 219 116.991 219 114.223C219 111.455 216.761 109.211 214 109.211C211.239 109.211 209 111.455 209 114.223C209 116.991 211.239 119.235 214 119.235Z" fill="#D0EDFF"/>
<path d="M27 89.1612C33.0751 89.1612 38 84.2242 38 78.134C38 72.0439 33.0751 67.1068 27 67.1068C20.9249 67.1068 16 72.0439 16 78.134C16 84.2242 20.9249 89.1612 27 89.1612Z" fill="#D0EDFF"/>
<path d="M330.5 222.49C337.404 222.49 343 216.88 343 209.959C343 203.038 337.404 197.428 330.5 197.428C323.596 197.428 318 203.038 318 209.959C318 216.88 323.596 222.49 330.5 222.49Z" fill="#D0EDFF"/>
</g>
<defs>
<linearGradient id="paint0_linear_2736_12065" x1="188" y1="-1.41451e-08" x2="187.772" y2="273" gradientUnits="userSpaceOnUse">
<stop offset="0.00325103" stop-color="#CEECFF"/>
<stop offset="1" stop-color="white"/>
</linearGradient>
<linearGradient id="paint1_linear_2736_12065" x1="188" y1="-1.41451e-08" x2="187.772" y2="273" gradientUnits="userSpaceOnUse">
<stop offset="0.00325103" stop-color="#CEECFF"/>
<stop offset="1" stop-color="white"/>
</linearGradient>
</defs>
</svg>
